<svg version="1.1" id="Layer_1" xmlns="http://www.w3.org/2000/svg" xmlns:xlink="http://www.w3.org/1999/xlink" x="0px" y="0px"
	 width="100%" viewBox="0 0 160 160" enable-background="new 0 0 160 160" xml:space="preserve">
<path fill="#FE0187" opacity="1.000000" stroke="none" 
	d="
M1.000000,149.000000 
	C1.000000,103.979103 1.000000,58.958210 1.312356,13.316067 
	C3.476445,6.390905 8.277392,3.207809 14.000000,1.000000 
	C58.354229,1.000000 102.708458,1.000000 147.697144,1.318825 
	C155.407974,2.834226 158.610703,8.000321 161.000000,14.000000 
	C161.000000,58.687561 161.000000,103.375122 160.688446,148.685211 
	C158.492111,155.577225 153.748962,158.820969 148.000000,161.000000 
	C103.312439,161.000000 58.624878,161.000000 13.315123,160.688232 
	C6.751612,158.684830 3.659553,154.064682 1.000000,149.000000 
M110.259575,139.979263 
	C115.134521,137.825729 120.009468,135.672195 124.884415,133.518661 
	C125.004631,132.997803 125.124847,132.476944 125.245056,131.956085 
	C118.541412,130.377319 119.140991,125.488670 119.593742,121.068550 
	C121.455147,102.896141 123.433945,84.733780 125.602837,66.595619 
	C126.824997,56.374798 128.619400,46.223431 129.928833,36.011646 
	C130.701019,29.989698 128.383972,26.015148 122.958107,24.333490 
	C119.586876,23.288626 115.937881,23.139984 111.687225,22.475554 
	C114.040848,52.456394 108.326080,80.855194 104.760506,109.561295 
	C101.223373,104.087990 98.197113,98.578682 95.303940,93.000351 
	C84.998550,73.130463 74.668732,53.272701 64.487808,33.339027 
	C58.550911,21.714939 42.743149,18.927612 32.588203,29.030552 
	C35.104172,30.732468 37.611015,32.282265 39.954288,34.049007 
	C43.122498,36.437721 46.384659,38.691341 45.776325,43.608517 
	C44.796764,51.526379 44.413189,59.521282 43.331570,67.422554 
	C40.718658,86.509949 37.810162,105.556702 35.104313,124.631676 
	C34.311840,130.218216 36.854031,134.635635 42.170227,136.304230 
	C45.549416,137.364838 49.201500,137.556000 53.523602,138.267487 
	C51.307255,111.900826 55.759892,86.937141 59.525200,60.778717 
	C60.944660,63.110325 61.957264,64.547203 62.742722,66.099045 
	C70.167198,80.767715 77.469475,95.498871 84.982903,110.121620 
	C89.143471,118.218987 93.463554,126.246704 98.054482,134.105591 
	C100.469284,138.239304 104.504623,140.215118 110.259575,139.979263 
z"/>
<path fill="#FDF2F7" opacity="1.000000" stroke="none" 
	d="
M161.000000,13.523338 
	C158.610703,8.000321 155.407974,2.834226 148.165802,1.318825 
	C152.256302,1.000000 156.512589,1.000000 161.000000,1.000000 
	C161.000000,5.013751 161.000000,9.030214 161.000000,13.523338 
z"/>
<path fill="#FDF3F7" opacity="1.000000" stroke="none" 
	d="
M13.523338,1.000000 
	C8.277392,3.207809 3.476445,6.390905 1.312356,12.847409 
	C1.000000,9.074012 1.000000,5.148024 1.000000,1.000000 
	C5.013897,1.000000 9.030287,1.000000 13.523338,1.000000 
z"/>
<path fill="#FDF3F7" opacity="1.000000" stroke="none" 
	d="
M148.476654,161.000000 
	C153.748962,158.820969 158.492111,155.577225 160.688446,149.153870 
	C161.000000,152.925995 161.000000,156.851974 161.000000,161.000000 
	C156.986099,161.000000 152.969711,161.000000 148.476654,161.000000 
z"/>
<path fill="#FDF4F8" opacity="1.000000" stroke="none" 
	d="
M1.000000,149.479187 
	C3.659553,154.064682 6.751612,158.684830 12.846466,160.688232 
	C9.078018,161.000000 5.156037,161.000000 1.000000,161.000000 
	C1.000000,157.321411 1.000000,153.639877 1.000000,149.479187 
z"/>
<path fill="#040102" opacity="1.000000" stroke="none" 
	d="
M109.843353,139.989365 
	C104.504623,140.215118 100.469284,138.239304 98.054482,134.105591 
	C93.463554,126.246704 89.143471,118.218987 84.982903,110.121620 
	C77.469475,95.498871 70.167198,80.767715 62.742722,66.099045 
	C61.957264,64.547203 60.944660,63.110325 59.525200,60.778717 
	C55.759892,86.937141 51.307255,111.900826 53.523602,138.267487 
	C49.201500,137.556000 45.549416,137.364838 42.170227,136.304230 
	C36.854031,134.635635 34.311840,130.218216 35.104313,124.631676 
	C37.810162,105.556702 40.718658,86.509949 43.331570,67.422554 
	C44.413189,59.521282 44.796764,51.526379 45.776325,43.608517 
	C46.384659,38.691341 43.122498,36.437721 39.954288,34.049007 
	C37.611015,32.282265 35.104172,30.732468 32.588203,29.030552 
	C42.743149,18.927612 58.550911,21.714939 64.487808,33.339027 
	C74.668732,53.272701 84.998550,73.130463 95.303940,93.000351 
	C98.197113,98.578682 101.223373,104.087990 104.760506,109.561295 
	C108.326080,80.855194 114.040848,52.456394 111.687225,22.475554 
	C115.937881,23.139984 119.586876,23.288626 122.958107,24.333490 
	C128.383972,26.015148 130.701019,29.989698 129.928833,36.011646 
	C128.619400,46.223431 126.824997,56.374798 125.602837,66.595619 
	C123.433945,84.733780 121.455147,102.896141 119.593742,121.068550 
	C119.140991,125.488670 118.541412,130.377319 125.245056,131.956085 
	C125.124847,132.476944 125.004631,132.997803 124.884415,133.518661 
	C120.009468,135.672195 115.134521,137.825729 109.843353,139.989365 
z"/>
</svg>